PathFileType  4	(X/Y/Z) C:\Users\antoi\Documents\MyRepositories\mobilecap\ResultsAnalysis
DataRate	CameraRate	NumFrames	NumMarkers	Units	OrigDataRate	OrigDataStartFrame	OrigNumFrames
100.0	100.0	4	51	mm	100.0	136	216
Frame#	Time	r_knee			r_shank_antsup			r_ankle			r_calc			r_5meta			r_toe			L_knee			L_shank_antsup			L_ankle			L_calc			L_5meta			L_toe			r_sh2			r_sh3			r_sh4			L_sh2			L_sh3			r_thigh1			r_thigh2			r_thigh3			r_thigh4			r_thigh5			L_thigh1			L_thigh2			L_thigh3			L_thigh4			r.ASIS			r.PSIS			L.ASIS			L.PSIS			C7			R_Shoulder			L_Shoulder			R_Sternum			L_Sternum			R_humerus			R_elbow_med			R_elbow_lat			R_forearm			R_wrist_radius			R_wrist_ulna			L_humerus			L_elbow_med			L_elbow_lat			L_forearm			L_wrist_radius			L_wrist_ulna			R_HJC			L_HJC			R_HJC_reg			L_HJC_reg			
		X1	Y1	Z1	X2	Y2	Z2	X3	Y3	Z3	X4	Y4	Z4	X5	Y5	Z5	X6	Y6	Z6	X7	Y7	Z7	X8	Y8	Z8	X9	Y9	Z9	X10	Y10	Z10	X11	Y11	Z11	X12	Y12	Z12	X13	Y13	Z13	X14	Y14	Z14	X15	Y15	Z15	X16	Y16	Z16	X17	Y17	Z17	X18	Y18	Z18	X19	Y19	Z19	X20	Y20	Z20	X21	Y21	Z21	X22	Y22	Z22	X23	Y23	Z23	X24	Y24	Z24	X25	Y25	Z25	X26	Y26	Z26	X27	Y27	Z27	X28	Y28	Z28	X29	Y29	Z29	X30	Y30	Z30	X31	Y31	Z31	X32	Y32	Z32	X33	Y33	Z33	X34	Y34	Z34	X35	Y35	Z35	X36	Y36	Z36	X37	Y37	Z37	X38	Y38	Z38	X39	Y39	Z39	X40	Y40	Z40	X41	Y41	Z41	X42	Y42	Z42	X43	Y43	Z43	X44	Y44	Z44	X45	Y45	Z45	X46	Y46	Z46	X47	Y47	Z47	X48	Y48	Z48	X49	Y49	Z49	X50	Y50	Z50	X51	Y51	Z51	

136	1.35000000	-29.16284	418.59060	-347.35756	-0.69688	337.16105	-349.17703	-247.73059	105.65576	-337.34263	-330.96455	74.22678	-373.09438	-168.19680	47.17009	-284.58185	-110.76369	65.17006	-336.28374	-27.74525	425.69741	-810.88165	-6.84293	333.53064	-831.96164	-225.42242	112.34228	-839.88926	-309.88703	77.13448	-799.47611	-143.77461	42.15430	-890.70978	-95.09467	58.60474	-835.24077	-85.65768	260.44319	-324.14466	-58.44829	394.39308	-330.86460	-138.22855	312.80834	-322.23691	-78.31631	387.31765	-829.91106	-143.92201	284.24531	-847.59951	-265.82647	618.97060	-392.21338	-170.15196	562.64233	-378.11764	-183.71922	505.34448	-343.55281	-325.74121	524.32414	-371.70915	-223.46760	467.62355	-357.09024	-250.74118	577.01294	-814.63880	-123.50761	524.57462	-811.58657	-294.94190	473.08072	-778.81588	-162.21479	424.38601	-793.44747	-279.29215	603.74892	-469.00726	-429.59247	731.18234	-540.44404	-284.98533	600.88882	-705.25825	-434.22360	737.52497	-637.81737	-97.51250	1023.61371	-606.16306	-8.97407	988.75723	-486.93857	-26.41866	993.24472	-733.15733	-16.53982	893.08549	-581.75343	-13.34965	891.32342	-632.52073	18.50941	976.57657	-370.73635	66.04494	823.13011	-221.48068	72.95044	900.06659	-195.01643	181.33774	920.32841	-283.97834	271.79649	928.27552	-363.38467	297.71549	907.96908	-350.11735	-18.29751	977.14846	-836.53337	-14.51279	813.15173	-1005.02670	-6.85999	898.02823	-1019.09579	73.27834	894.66142	-939.53431	189.43773	887.28185	-857.43097	208.22587	897.19012	-883.88960	-386.39951	572.16511	-485.49574	-388.82684	573.58331	-691.94699	-374.83106	570.92750	-499.20168	-382.22527	581.05481	-654.67887	
137	1.36000000	-27.55521	418.85663	-348.09416	0.26802	337.21980	-349.60802	-247.47728	106.20182	-337.37716	-330.73733	74.89140	-373.38712	-168.04898	47.35121	-284.66425	-110.60051	65.16277	-336.35093	-26.30907	426.64323	-809.99121	-6.05907	334.15654	-831.49449	-224.94444	113.04935	-839.41881	-309.36479	78.21667	-798.87772	-143.66893	42.37914	-890.52462	-94.71786	58.57650	-835.15065	-84.73956	260.55961	-324.52626	-57.55340	394.73282	-331.70244	-137.37587	313.06286	-322.49256	-77.44381	388.01900	-829.15594	-143.18006	284.99606	-846.93574	-261.28379	623.06462	-392.42900	-166.13654	565.54608	-378.65465	-180.13431	507.97394	-345.41968	-322.34135	529.52378	-371.38113	-220.75946	471.37515	-356.89532	-247.38672	580.81604	-813.26610	-120.94599	527.11165	-810.71696	-292.90875	477.87453	-778.29332	-160.83165	427.46944	-792.86281	-275.63586	609.37452	-468.63456	-425.89788	736.88423	-540.21502	-280.83419	607.01423	-705.05770	-430.47304	743.31763	-637.59899	-94.51709	1029.64793	-605.30695	-5.78510	994.99219	-486.47503	-24.11248	999.53464	-732.67054	-12.97589	899.31948	-581.35848	-10.04644	897.67100	-631.95738	23.01489	983.15847	-371.15303	73.32456	830.64013	-221.59933	80.35490	907.84380	-195.89965	187.00227	928.41345	-286.57794	275.95553	936.63323	-367.50281	302.39516	916.80649	-354.35449	-16.22821	984.84404	-835.72660	-13.35057	823.69297	-1007.23477	-5.97037	908.88746	-1019.87844	73.96675	904.76307	-940.41397	190.32412	896.88631	-858.61349	208.92288	907.17554	-884.95097	-382.67980	577.74622	-485.48194	-384.70196	579.55833	-691.93520	-371.01526	576.69246	-498.94481	-378.32499	586.96994	-654.51972	
138	1.37000000	-26.10522	419.46134	-348.60715	1.19926	337.53441	-350.04824	-247.17746	106.64707	-337.57893	-330.39641	75.72220	-373.70235	-167.89296	47.56638	-284.74800	-110.35185	65.14583	-336.45802	-25.11150	427.89162	-809.34146	-5.49280	334.80441	-830.96034	-224.31730	113.80156	-839.05293	-308.80912	79.34346	-798.25885	-143.49745	42.62708	-890.31610	-94.25080	58.53107	-835.05395	-83.71524	260.77882	-325.16793	-57.10721	395.46664	-331.98291	-136.37371	313.39499	-322.58538	-76.82681	388.74518	-828.58775	-142.63949	285.96166	-846.37287	-256.44703	628.02548	-392.92592	-162.01546	569.02079	-379.07393	-176.69730	511.35371	-346.42722	-318.85999	535.82020	-370.91974	-218.22244	475.84075	-356.82814	-244.10158	585.50434	-812.27746	-118.39950	529.97798	-810.00216	-290.94998	483.20321	-777.80471	-159.61936	430.91669	-792.27474	-271.94051	616.34538	-467.48840	-422.18679	743.61509	-539.72660	-276.40572	613.84246	-704.24112	-426.61957	749.87911	-637.28854	-91.91881	1036.66945	-604.38858	-2.84816	1002.56887	-485.91924	-22.25241	1007.07773	-732.25261	-9.51073	906.78803	-580.99613	-6.79333	905.19374	-631.61941	26.86659	991.40075	-371.39063	79.81296	840.05036	-221.25837	86.70606	917.62929	-196.42503	191.64262	938.42510	-288.70859	279.20040	946.89697	-370.96177	306.13078	927.62358	-357.75354	-14.80620	993.93715	-834.74201	-13.16905	835.78216	-1009.88339	-5.84766	921.38684	-1020.80256	74.02083	916.63485	-941.43310	190.84994	908.09699	-859.65106	208.96587	918.80562	-886.42889	-378.88215	584.54457	-484.80313	-380.28697	586.18885	-691.26301	-367.13380	583.60800	-497.95016	-374.21445	593.61220	-653.76264	
139	1.38000000	-24.84515	420.35809	-348.87843	2.05547	338.00634	-350.70283	-246.70960	107.25093	-337.75858	-329.90579	76.84098	-373.90141	-167.71222	47.81615	-284.76813	-110.01117	65.11053	-336.53495	-24.29269	429.28719	-808.77401	-5.15716	335.62467	-830.45845	-223.66108	114.65975	-838.87327	-308.26857	80.57378	-797.75965	-143.28033	42.88767	-890.15665	-93.81476	58.53860	-835.01136	-82.64502	261.08078	-325.82326	-56.51785	396.54594	-331.36571	-135.24863	313.85118	-322.70434	-76.39744	389.57803	-828.22711	-142.28375	287.23137	-845.91616	-251.44127	633.85877	-393.35750	-158.54130	572.75225	-379.15545	-173.59024	515.57834	-346.25050	-315.29610	542.82126	-370.41935	-215.83422	480.94955	-356.77130	-240.92175	591.02026	-811.90575	-115.92113	532.99809	-809.48865	-289.15377	488.95767	-776.99369	-158.70891	434.68527	-791.67721	-267.20820	624.13004	-466.64869	-417.87046	751.11766	-538.71214	-272.20324	621.67285	-704.21801	-422.70804	757.31101	-636.87470	-89.70866	1044.66227	-603.50392	-0.30341	1010.88626	-485.23484	-20.78847	1015.85891	-731.90382	-6.13808	915.48060	-580.72590	-3.50618	913.89192	-631.39629	30.02593	1001.01700	-371.45378	85.40540	851.23994	-220.33823	91.91477	929.15147	-196.46684	195.28921	950.21701	-290.23729	281.60831	958.98017	-373.55657	308.94366	940.14757	-360.40526	-14.22552	1004.29714	-833.96314	-13.89303	849.36165	-1012.75820	-6.63008	935.26850	-1021.81339	73.54131	930.21092	-942.53115	190.72854	920.89683	-860.76363	208.24380	932.09150	-888.26626	-374.13064	592.11390	-484.16633	-375.99387	593.74644	-690.61985	-362.44762	591.18424	-496.87454	-370.14912	601.04771	-653.21226	
